<mxfile host="app.diagrams.net" modified="2024-05-01T17:51:23.657Z" agent="Mozilla/5.0 (Windows NT 10.0; Win64; x64) AppleWebKit/537.36 (KHTML, like Gecko) Chrome/124.0.0.0 Safari/537.36" etag="c2I4vCH2RwxBWDDE4akG" version="24.3.1" type="github">
  <diagram name="第 1 页" id="ujg_DJp1gIZYfJai60EQ">
    <mxGraphModel dx="1615" dy="1984" grid="1" gridSize="10" guides="1" tooltips="1" connect="1" arrows="1" fold="1" page="1" pageScale="1" pageWidth="827" pageHeight="1169" math="0" shadow="0">
      <root>
        <mxCell id="0" />
        <mxCell id="1" parent="0" />
        <mxCell id="-HPR31DF6WdVKAQPYqyz-11" style="edgeStyle=orthogonalEdgeStyle;rounded=0;orthogonalLoop=1;jettySize=auto;html=1;exitX=1;exitY=0.3333333333333333;exitDx=0;exitDy=0;exitPerimeter=0;" edge="1" parent="1" source="-HPR31DF6WdVKAQPYqyz-1" target="-HPR31DF6WdVKAQPYqyz-4">
          <mxGeometry relative="1" as="geometry" />
        </mxCell>
        <mxCell id="-HPR31DF6WdVKAQPYqyz-1" value="用户" style="shape=umlActor;verticalLabelPosition=bottom;verticalAlign=top;html=1;outlineConnect=0;" vertex="1" parent="1">
          <mxGeometry x="140" y="310" width="30" height="60" as="geometry" />
        </mxCell>
        <mxCell id="-HPR31DF6WdVKAQPYqyz-4" value="用户管理子系统" style="ellipse;whiteSpace=wrap;html=1;" vertex="1" parent="1">
          <mxGeometry x="300" y="290" width="120" height="80" as="geometry" />
        </mxCell>
        <mxCell id="-HPR31DF6WdVKAQPYqyz-5" value="&lt;span style=&quot;color: rgb(51, 51, 51); font-family: &amp;quot;Open Sans&amp;quot;, &amp;quot;Clear Sans&amp;quot;, &amp;quot;Helvetica Neue&amp;quot;, Helvetica, Arial, &amp;quot;Segoe UI Emoji&amp;quot;, sans-serif; font-size: 16px; orphans: 4; text-align: left; white-space-collapse: preserve; background-color: rgb(255, 255, 255);&quot;&gt;登陆&lt;/span&gt;" style="ellipse;whiteSpace=wrap;html=1;" vertex="1" parent="1">
          <mxGeometry x="430" y="70" width="100" height="70" as="geometry" />
        </mxCell>
        <mxCell id="-HPR31DF6WdVKAQPYqyz-6" value="注册" style="ellipse;whiteSpace=wrap;html=1;" vertex="1" parent="1">
          <mxGeometry x="530" y="160" width="120" height="80" as="geometry" />
        </mxCell>
        <mxCell id="-HPR31DF6WdVKAQPYqyz-7" value="密码管理" style="ellipse;whiteSpace=wrap;html=1;" vertex="1" parent="1">
          <mxGeometry x="550" y="270" width="120" height="80" as="geometry" />
        </mxCell>
        <mxCell id="-HPR31DF6WdVKAQPYqyz-8" value="修改信息" style="ellipse;whiteSpace=wrap;html=1;" vertex="1" parent="1">
          <mxGeometry x="540" y="370" width="130" height="80" as="geometry" />
        </mxCell>
        <mxCell id="-HPR31DF6WdVKAQPYqyz-9" value="登陆日志" style="ellipse;whiteSpace=wrap;html=1;" vertex="1" parent="1">
          <mxGeometry x="545" y="480" width="120" height="80" as="geometry" />
        </mxCell>
        <mxCell id="-HPR31DF6WdVKAQPYqyz-13" value="" style="endArrow=classic;html=1;rounded=0;exitX=0.5;exitY=0;exitDx=0;exitDy=0;entryX=0;entryY=1;entryDx=0;entryDy=0;dashed=1;" edge="1" parent="1" source="-HPR31DF6WdVKAQPYqyz-4" target="-HPR31DF6WdVKAQPYqyz-5">
          <mxGeometry relative="1" as="geometry">
            <mxPoint x="230" y="170" as="sourcePoint" />
            <mxPoint x="394" y="178" as="targetPoint" />
          </mxGeometry>
        </mxCell>
        <mxCell id="-HPR31DF6WdVKAQPYqyz-14" value="&amp;lt;&amp;lt;include&amp;gt;&amp;gt;" style="edgeLabel;resizable=0;html=1;;align=center;verticalAlign=middle;" connectable="0" vertex="1" parent="-HPR31DF6WdVKAQPYqyz-13">
          <mxGeometry relative="1" as="geometry">
            <mxPoint y="-16" as="offset" />
          </mxGeometry>
        </mxCell>
        <mxCell id="-HPR31DF6WdVKAQPYqyz-15" value="" style="endArrow=classic;html=1;rounded=0;dashed=1;entryX=1;entryY=0;entryDx=0;entryDy=0;exitX=0;exitY=0.5;exitDx=0;exitDy=0;" edge="1" parent="1" source="-HPR31DF6WdVKAQPYqyz-17" target="-HPR31DF6WdVKAQPYqyz-5">
          <mxGeometry relative="1" as="geometry">
            <mxPoint x="680" y="20" as="sourcePoint" />
            <mxPoint x="515.3553390593274" y="60.00126265847075" as="targetPoint" />
          </mxGeometry>
        </mxCell>
        <mxCell id="-HPR31DF6WdVKAQPYqyz-16" value="&amp;lt;&amp;lt;extends&amp;gt;&amp;gt;" style="edgeLabel;resizable=0;html=1;;align=center;verticalAlign=middle;" connectable="0" vertex="1" parent="-HPR31DF6WdVKAQPYqyz-15">
          <mxGeometry relative="1" as="geometry">
            <mxPoint x="23" y="-18" as="offset" />
          </mxGeometry>
        </mxCell>
        <mxCell id="-HPR31DF6WdVKAQPYqyz-17" value="密码登陆" style="ellipse;whiteSpace=wrap;html=1;" vertex="1" parent="1">
          <mxGeometry x="610" y="-50" width="120" height="80" as="geometry" />
        </mxCell>
        <mxCell id="-HPR31DF6WdVKAQPYqyz-18" value="验证码登陆" style="ellipse;whiteSpace=wrap;html=1;" vertex="1" parent="1">
          <mxGeometry x="640" y="40" width="120" height="80" as="geometry" />
        </mxCell>
        <mxCell id="-HPR31DF6WdVKAQPYqyz-19" value="" style="endArrow=classic;html=1;rounded=0;dashed=1;entryX=1;entryY=0.5;entryDx=0;entryDy=0;exitX=0;exitY=0.5;exitDx=0;exitDy=0;" edge="1" parent="1" source="-HPR31DF6WdVKAQPYqyz-18" target="-HPR31DF6WdVKAQPYqyz-5">
          <mxGeometry relative="1" as="geometry">
            <mxPoint x="620" as="sourcePoint" />
            <mxPoint x="525" y="90" as="targetPoint" />
          </mxGeometry>
        </mxCell>
        <mxCell id="-HPR31DF6WdVKAQPYqyz-20" value="&amp;lt;&amp;lt;extends&amp;gt;&amp;gt;" style="edgeLabel;resizable=0;html=1;;align=center;verticalAlign=middle;" connectable="0" vertex="1" parent="-HPR31DF6WdVKAQPYqyz-19">
          <mxGeometry relative="1" as="geometry">
            <mxPoint x="23" y="-18" as="offset" />
          </mxGeometry>
        </mxCell>
        <mxCell id="-HPR31DF6WdVKAQPYqyz-21" value="" style="endArrow=classic;html=1;rounded=0;exitX=1;exitY=0;exitDx=0;exitDy=0;entryX=0;entryY=0.5;entryDx=0;entryDy=0;dashed=1;" edge="1" parent="1" source="-HPR31DF6WdVKAQPYqyz-4" target="-HPR31DF6WdVKAQPYqyz-6">
          <mxGeometry relative="1" as="geometry">
            <mxPoint x="370" y="300" as="sourcePoint" />
            <mxPoint x="455" y="140" as="targetPoint" />
          </mxGeometry>
        </mxCell>
        <mxCell id="-HPR31DF6WdVKAQPYqyz-22" value="&amp;lt;&amp;lt;include&amp;gt;&amp;gt;" style="edgeLabel;resizable=0;html=1;;align=center;verticalAlign=middle;" connectable="0" vertex="1" parent="-HPR31DF6WdVKAQPYqyz-21">
          <mxGeometry relative="1" as="geometry">
            <mxPoint y="-16" as="offset" />
          </mxGeometry>
        </mxCell>
        <mxCell id="-HPR31DF6WdVKAQPYqyz-23" value="" style="endArrow=classic;html=1;rounded=0;exitX=1;exitY=0.5;exitDx=0;exitDy=0;entryX=0;entryY=0.5;entryDx=0;entryDy=0;dashed=1;" edge="1" parent="1" source="-HPR31DF6WdVKAQPYqyz-4" target="-HPR31DF6WdVKAQPYqyz-7">
          <mxGeometry relative="1" as="geometry">
            <mxPoint x="412" y="312" as="sourcePoint" />
            <mxPoint x="540" y="210" as="targetPoint" />
          </mxGeometry>
        </mxCell>
        <mxCell id="-HPR31DF6WdVKAQPYqyz-24" value="&amp;lt;&amp;lt;include&amp;gt;&amp;gt;" style="edgeLabel;resizable=0;html=1;;align=center;verticalAlign=middle;" connectable="0" vertex="1" parent="-HPR31DF6WdVKAQPYqyz-23">
          <mxGeometry relative="1" as="geometry">
            <mxPoint y="-16" as="offset" />
          </mxGeometry>
        </mxCell>
        <mxCell id="-HPR31DF6WdVKAQPYqyz-25" value="" style="endArrow=classic;html=1;rounded=0;exitX=1;exitY=1;exitDx=0;exitDy=0;entryX=0;entryY=0;entryDx=0;entryDy=0;dashed=1;" edge="1" parent="1" source="-HPR31DF6WdVKAQPYqyz-4" target="-HPR31DF6WdVKAQPYqyz-8">
          <mxGeometry relative="1" as="geometry">
            <mxPoint x="430" y="340" as="sourcePoint" />
            <mxPoint x="560" y="320" as="targetPoint" />
          </mxGeometry>
        </mxCell>
        <mxCell id="-HPR31DF6WdVKAQPYqyz-26" value="&amp;lt;&amp;lt;include&amp;gt;&amp;gt;" style="edgeLabel;resizable=0;html=1;;align=center;verticalAlign=middle;" connectable="0" vertex="1" parent="-HPR31DF6WdVKAQPYqyz-25">
          <mxGeometry relative="1" as="geometry">
            <mxPoint y="-16" as="offset" />
          </mxGeometry>
        </mxCell>
        <mxCell id="-HPR31DF6WdVKAQPYqyz-27" value="" style="endArrow=classic;html=1;rounded=0;exitX=0.5;exitY=1;exitDx=0;exitDy=0;entryX=0;entryY=0;entryDx=0;entryDy=0;dashed=1;" edge="1" parent="1" source="-HPR31DF6WdVKAQPYqyz-4" target="-HPR31DF6WdVKAQPYqyz-9">
          <mxGeometry relative="1" as="geometry">
            <mxPoint x="320" y="450" as="sourcePoint" />
            <mxPoint x="457" y="494" as="targetPoint" />
          </mxGeometry>
        </mxCell>
        <mxCell id="-HPR31DF6WdVKAQPYqyz-28" value="&amp;lt;&amp;lt;include&amp;gt;&amp;gt;" style="edgeLabel;resizable=0;html=1;;align=center;verticalAlign=middle;" connectable="0" vertex="1" parent="-HPR31DF6WdVKAQPYqyz-27">
          <mxGeometry relative="1" as="geometry">
            <mxPoint y="-16" as="offset" />
          </mxGeometry>
        </mxCell>
        <mxCell id="-HPR31DF6WdVKAQPYqyz-29" value="修改密码" style="ellipse;whiteSpace=wrap;html=1;" vertex="1" parent="1">
          <mxGeometry x="707" y="190" width="120" height="80" as="geometry" />
        </mxCell>
        <mxCell id="-HPR31DF6WdVKAQPYqyz-30" value="忘记密码" style="ellipse;whiteSpace=wrap;html=1;" vertex="1" parent="1">
          <mxGeometry x="730" y="290" width="120" height="80" as="geometry" />
        </mxCell>
        <mxCell id="-HPR31DF6WdVKAQPYqyz-31" value="" style="endArrow=classic;html=1;rounded=0;entryX=0;entryY=0.5;entryDx=0;entryDy=0;dashed=1;exitX=1;exitY=0;exitDx=0;exitDy=0;" edge="1" parent="1" source="-HPR31DF6WdVKAQPYqyz-7" target="-HPR31DF6WdVKAQPYqyz-29">
          <mxGeometry relative="1" as="geometry">
            <mxPoint x="660" y="270" as="sourcePoint" />
            <mxPoint x="560" y="320" as="targetPoint" />
          </mxGeometry>
        </mxCell>
        <mxCell id="-HPR31DF6WdVKAQPYqyz-32" value="&amp;lt;&amp;lt;include&amp;gt;&amp;gt;" style="edgeLabel;resizable=0;html=1;;align=center;verticalAlign=middle;" connectable="0" vertex="1" parent="-HPR31DF6WdVKAQPYqyz-31">
          <mxGeometry relative="1" as="geometry">
            <mxPoint y="-16" as="offset" />
          </mxGeometry>
        </mxCell>
        <mxCell id="-HPR31DF6WdVKAQPYqyz-33" value="" style="endArrow=classic;html=1;rounded=0;entryX=0;entryY=0.5;entryDx=0;entryDy=0;dashed=1;exitX=1;exitY=0.5;exitDx=0;exitDy=0;" edge="1" parent="1" source="-HPR31DF6WdVKAQPYqyz-7" target="-HPR31DF6WdVKAQPYqyz-30">
          <mxGeometry relative="1" as="geometry">
            <mxPoint x="662" y="292" as="sourcePoint" />
            <mxPoint x="717" y="240" as="targetPoint" />
          </mxGeometry>
        </mxCell>
        <mxCell id="-HPR31DF6WdVKAQPYqyz-34" value="&amp;lt;&amp;lt;include&amp;gt;&amp;gt;" style="edgeLabel;resizable=0;html=1;;align=center;verticalAlign=middle;" connectable="0" vertex="1" parent="-HPR31DF6WdVKAQPYqyz-33">
          <mxGeometry relative="1" as="geometry">
            <mxPoint y="-16" as="offset" />
          </mxGeometry>
        </mxCell>
      </root>
    </mxGraphModel>
  </diagram>
</mxfile>
